<?xml version="1.0" standalone="no"?><!DOCTYPE svg PUBLIC "-//W3C//DTD SVG 1.1//EN" "http://www.w3.org/Graphics/SVG/1.1/DTD/svg11.dtd"><svg t="1639045828993" class="icon" viewBox="0 0 1024 1024" version="1.1" xmlns="http://www.w3.org/2000/svg" p-id="2231" width="512" height="512" xmlns:xlink="http://www.w3.org/1999/xlink"><defs><style type="text/css"></style></defs><path d="M493 418.9v186.2c-14-2.8-27-8.8-38-17.1V436c11-8.3 24-14.2 38-17.1z" fill="#8a8a8a" p-id="2232"></path><path d="M531 418.9v186.2c-6.1 1.2-12.5 1.9-19 1.9s-12.9-0.7-19-1.9V418.9c6.1-1.2 12.5-1.9 19-1.9s12.9 0.7 19 1.9z" fill="#8a8a8a" p-id="2233"></path><path d="M569 436v152c-11 8.3-24 14.2-38 17.1V418.9c14 2.9 27 8.8 38 17.1z" fill="#8a8a8a" p-id="2234" data-spm-anchor-id="a313x.7781069.0.i9"></path><path d="M607 512c0 31.1-14.9 58.7-38 76V436c23.1 17.3 38 44.9 38 76z" fill="#8a8a8a" p-id="2235"></path><path d="M455 436v152c-23.1-17.3-38-44.9-38-76s14.9-58.7 38-76z" fill="#8a8a8a" p-id="2236"></path><path d="M759 736c-6.8-30.4-16.5-63-28.9-97l5.1-0.9 1-0.2-1.4-7.9-1 0.2c-2.1 0.4-4.3 0.8-6.4 1.1-22.8-61-53.8-126.2-91.2-191-12.4-21.5-25.2-42.4-38.3-62.5 4 0.2 7.9 0.5 11.9 0.8l1 0.1 0.6-8-1-0.1c-5.9-0.4-11.9-0.8-17.9-1.1-25-38-50.9-73.3-77.1-104.8 92.1-110.4 176.2-163.5 219.5-138.5 25.8 14.9 35.3 57.7 26.7 120.5-5.4 39.8-18 86.8-36.4 137.4-4.3-0.7-8.7-1.5-13.1-2.1l-1-0.2-1.2 7.9 1 0.2c3.9 0.6 7.7 1.2 11.5 1.9-10.3 27.4-22.2 55.7-35.7 84.5l-0.4 0.9 4.5 2.1 0.4-0.9c39.6-84.7 66.3-166.3 75.2-229.9 9.2-66.5-0.8-110.3-29-126.6-23.2-13.4-57.1-6.6-98.1 19.6-38.7 24.7-82.6 66-127.2 119.3-23.6-28.2-47.3-53.4-70.5-74.7-66.2-60.8-121.2-83.6-154.7-64.2-32.5 18.8-40.8 75-23.4 158.4-6 2.5-10.3 8.4-10.3 15.3 0 9.1 7.4 16.5 16.5 16.5s16.5-7.4 16.5-16.5-7.4-16.5-16.5-16.5c-0.4 0-0.9 0-1.3 0.1-16.9-81-9.4-135.3 21.1-152.9 15.7-9.1 36.9-8 62.8 3.2 25.5 11 54.5 31.3 86.1 60.3 50.7 46.6 103.6 111.3 152.7 186.5l-0.1 1.2h0.9c13.7 21 27.1 42.9 40.1 65.4 13.3 23.1 25.8 46.2 37.4 69.1-11.6 23-24.2 46.3-37.4 69.1-12.9 22.4-26.4 44.3-40.1 65.4-5.9 0.3-11.9 0.6-17.8 0.9h-1l0.3 8h1l12-0.6c-16.2 24.4-32.9 47.9-49.8 70l-0.6 0.8 4 3 0.6-0.8c17.7-23.1 35.2-47.8 52.1-73.4h0.9l-0.1-1.1c0.3-0.5 0.6-0.9 0.9-1.4 14.4-21.9 28.5-44.9 42-68.3 12.6-21.9 24.7-44.1 35.9-66.1 39 78 67.6 154.1 82.2 219.6 9.3 41.8 12.4 77 9.2 104.7-2 17.6-6.6 31.6-13.6 41.8l-0.9-1.6-0.9 0.5c-4.6 2.7-9.9 4.5-15.5 5.3l-1 0.1 1.2 7.9 1-0.1c2.1-0.3 4.1-0.7 6-1.2-1.6 1.2-3.2 2.3-4.9 3.3-15.7 9.1-36.9 8-62.8-3.2-25.5-11-54.5-31.3-86.1-60.3-49.1-45.1-100.3-107.3-148-179.4 3.4 0.2 6.7 0.3 10 0.5h1l0.3-6.9 0.5 0.7c1.1 1.6 2.2 3.3 3.3 4.9l-0.1 1.4h1.1c1.9 2.9 3.9 5.7 5.8 8.5l0.6 0.8 6.6-4.5-0.6-0.8c-0.8-1.2-1.7-2.4-2.5-3.6l8.1 0.3h1l0.2-8h-1c-4.6-0.1-9.2-0.3-13.8-0.5-0.7-1-1.4-2-2-3l-0.6-0.8-6.5 4.4v-0.9h-1c-5.2-0.2-10.6-0.5-15.8-0.8-13.7-21-27.1-42.9-40.1-65.4-13.3-23-25.8-46.1-37.4-69.1 11.6-23 24.2-46.3 37.4-69.1 12.8-22.2 26.3-44.2 40.1-65.4h0.8l-0.1-1.1c0.3-0.5 0.6-1 0.9-1.4 20.6-31.4 42-61.2 63.6-88.6l0.6-0.8-3.9-3.1-0.6 0.8c-21.1 26.8-42 55.8-62.1 86.3-5 0.3-10.1 0.6-15 0.9l-1 0.1 0.5 8 1-0.1 9-0.6c-13.2 20.3-26 41.3-38.3 62.5-12.6 21.8-24.6 44-35.9 66.1-19.5-38.9-36.4-77.5-50.3-114.7 4.8-0.8 9.6-1.6 14.4-2.3l1-0.2-1.2-7.9-1 0.2c-5.4 0.8-10.8 1.7-16 2.6-4.1-11.3-8-22.4-11.5-33.4l-0.3-1-4.8 1.5 0.3 1c23.2 72.6 59.6 152.6 105 231.2 13.9 24 28.2 47.3 42.9 69.7l-0.1 1.1h0.8c25 38 50.9 73.3 77.1 104.8-26.9 32.3-53.5 60.1-79.1 82.6l-0.8 0.7 3.3 3.8 0.8-0.7c25.6-22.5 52.2-50.3 79.1-82.5 23.6 28.2 47.3 53.4 70.5 74.7 50.5 46.4 94.8 70.9 127.9 70.9 10 0 19.1-2.3 26.8-6.8 5.4-3.1 10.1-7.3 14.2-12.4l0.6-0.3 0.9-0.5-0.3-0.6c20.2-26.9 22.6-79.7 6.5-152.1zM269.5 307c-6.3 0-11.5-5.2-11.5-11.5s5.2-11.5 11.5-11.5 11.5 5.2 11.5 11.5-5.2 11.5-11.5 11.5z" fill="#8a8a8a" p-id="2237"></path><path d="M420.4 603.6l0.5 0.9 6.8-4.2-0.5-0.9c-3.1-5-6.2-10.2-9.3-15.4l-0.5-0.9-6.9 4.1 0.5 0.9c3.2 5.2 6.3 10.4 9.4 15.5zM502.4 722.4l0.6 0.8 6.3-4.9-0.6-0.8c-3.7-4.7-7.3-9.5-10.9-14.2l-0.6-0.8-6.4 4.8 0.6 0.8c3.6 4.7 7.3 9.6 11 14.3zM517.4 741.2l0.6 0.8 6.2-5.1-0.6-0.8c-3.7-4.6-7.5-9.3-11.2-14l-0.6-0.8-6.3 5 0.6 0.8c3.8 4.8 7.6 9.5 11.3 14.1zM480 692.7c2.6 3.5 5.2 7.1 7.8 10.6l0.6 0.8 6.4-4.8-0.6-0.8c-2.6-3.4-5.2-7-7.8-10.5-1-1.3-1.9-2.6-2.9-3.9l-0.6-0.8-6.5 4.7 0.6 0.8c1.1 1.2 2 2.5 3 3.9zM446.3 644.2l0.6 0.8 6.7-4.4-0.6-0.8c-3.3-4.9-6.6-10-9.8-15l-0.5-0.8-6.7 4.3 0.5 0.8c3.2 5 6.5 10.1 9.8 15.1zM407.6 566.4l-0.5-0.9-6.9 4 0.5 0.9c2.4 4.2 4.9 8.4 7.4 12.6l0.5 0.9 6.9-4.1-0.5-0.9c-2.6-4.2-5-8.4-7.4-12.5zM469.2 663.7l-6.6 4.6 0.6 0.8c3.4 4.9 6.9 9.9 10.4 14.8l0.6 0.8 6.5-4.7-0.6-0.8c-3.5-4.8-6.9-9.8-10.3-14.7l-0.6-0.8zM433.2 624l0.5 0.8 6.7-4.3-0.5-0.8c-3.2-5-6.4-10.1-9.5-15.2l-0.5-0.9-6.8 4.2 0.5 0.9c3.1 5.1 6.4 10.3 9.6 15.3zM542.9 759l-0.7-0.8-6 5.2 0.7 0.8c4 4.6 8 9.2 12 13.5l0.7 0.7 5.9-5.4-0.7-0.7c-4-4.2-8-8.8-11.9-13.3zM666.9 869.3l-0.9-0.5-4 6.9 0.9 0.5c3.5 2 7.1 4 10.5 5.7 1.9 1 3.9 1.9 5.8 2.8l0.9 0.4 3.4-7.3-0.9-0.4c-1.8-0.8-3.7-1.7-5.5-2.7-3.3-1.6-6.7-3.5-10.2-5.4zM609.7 827.1l-0.8-0.7-5.3 6 0.8 0.7c4.7 4.1 9.3 8 13.8 11.7l0.8 0.6 5.1-6.2-0.8-0.6c-4.4-3.6-9-7.5-13.6-11.5zM527.4 740.8l-0.6-0.8-6.2 5.1 0.6 0.8c3.8 4.6 7.8 9.3 11.6 13.8l0.7 0.8 6.1-5.2-0.7-0.8c-3.8-4.5-7.7-9.1-11.5-13.7zM623 848.6c4.9 3.9 9.8 7.6 14.5 11l0.8 0.6 4.7-6.5-0.8-0.6c-4.6-3.3-9.4-7-14.2-10.8l-0.8-0.6-5 6.3 0.8 0.6zM647 856.6l-0.8-0.6-4.6 6.6 0.8 0.6c5.2 3.6 10.3 7 15.3 10l0.9 0.5 4.2-6.8-0.9-0.5c-4.9-3.1-9.9-6.3-14.9-9.8zM727.3 896.3h1l-0.3-8h-1c-5.3 0.2-11-0.3-16.9-1.5l-1-0.2-1.6 7.8 1 0.2c5.6 1.1 11 1.7 16.1 1.7 0.8 0.1 1.8 0.1 2.7 0zM558.8 776.8l-0.7-0.7-5.9 5.4 0.7 0.7c4.1 4.4 8.2 8.9 12.4 13.2l0.7 0.7 5.8-5.5-0.7-0.7c-4.1-4.2-8.2-8.6-12.3-13.1zM575.2 794.2l-0.7-0.7-5.7 5.6 0.7 0.7c4.3 4.4 8.6 8.7 12.8 12.8l0.7 0.7 5.6-5.7-0.7-0.7c-4.2-4.1-8.5-8.4-12.7-12.7zM592.2 811l-0.7-0.7-5.5 5.8 0.7 0.7c4.4 4.2 8.9 8.4 13.3 12.3l0.7 0.7 5.3-5.9-0.7-0.7c-4.4-4-8.8-8.1-13.1-12.2zM703.3 893.5l2.1-7.7-1-0.3c-5.2-1.4-10.8-3.3-16.5-5.7l-0.9-0.4-3.1 7.4 0.9 0.4c6 2.5 11.9 4.6 17.5 6.1l1 0.2zM494.9 265.1l-0.7-0.8-6.1 5.2 0.7 0.8c3.8 4.4 7.7 9.1 11.6 13.7l0.6 0.8 6.2-5.1-0.6-0.8c-3.9-4.7-7.9-9.3-11.7-13.8zM510.4 283.6l-0.6-0.8-6.2 5.1 0.6 0.8c3.7 4.5 7.5 9.2 11.2 14l0.6 0.8 6.3-4.9-0.6-0.8c-3.8-4.9-7.6-9.7-11.3-14.2zM525.4 302.4l-0.6-0.8-6.3 4.9 0.6 0.8c3.6 4.7 7.3 9.5 10.9 14.3l0.6 0.8 6.4-4.8-0.6-0.8c-3.7-4.9-7.4-9.7-11-14.4zM478.9 247l-0.7-0.7-5.9 5.4 0.7 0.7c3.9 4.3 8 8.8 11.9 13.4l0.7 0.8 6-5.3-0.7-0.8c-4-4.6-8-9.1-12-13.5zM445.1 212.5l-0.7-0.7-5.5 5.8 0.7 0.7c4.2 4 8.5 8.2 12.8 12.5l0.7 0.7 5.7-5.6-0.7-0.7c-4.4-4.4-8.7-8.6-13-12.7zM462.3 229.5l-0.7-0.7-5.7 5.6 0.7 0.7c4.1 4.2 8.2 8.5 12.3 13l0.7 0.7 5.9-5.4-0.7-0.7c-4.2-4.6-8.4-9-12.5-13.2zM554.1 341.1l-0.6-0.8-6.5 4.6 0.6 0.8c3.4 4.8 6.9 9.8 10.3 14.7l0.6 0.8 6.6-4.5-0.6-0.8c-3.5-4.9-7-9.9-10.4-14.8zM594 401.3l-0.5-0.8-6.8 4.2 0.5 0.8c3.1 5 6.3 10.2 9.4 15.3l0.5 0.9 6.8-4.1-0.5-0.9c-3-5.1-6.2-10.3-9.4-15.4zM606.6 421.9l-0.5-0.9-6.9 4.1 0.5 0.9c3.1 5.1 6.1 10.3 9.1 15.5l0.5 0.9 6.9-4-0.5-0.9c-2.9-5.2-6-10.5-9.1-15.6zM320.4 141.1H319v8h1.3c5.1 0 10.7 0.7 16.5 2.1l1 0.2 1.9-7.8-1-0.2c-6.4-1.5-12.6-2.3-18.3-2.3zM314.5 149.4l1-0.1-0.9-7.9-1 0.1c-6.8 0.8-13 2.8-18.5 6l-0.9 0.5 4 6.9 0.9-0.5c4.5-2.6 9.7-4.3 15.4-5zM567.8 360.9l-0.6-0.8-6.6 4.5 0.6 0.8c3.3 4.9 6.6 9.9 10 14.9l0.5 0.8 6.7-4.4-0.5-0.8c-3.4-5-6.8-10-10.1-15zM427.2 196.3l-0.8-0.7-5.2 6.1 0.8 0.7c4.4 3.8 8.8 7.8 13.3 11.9l0.7 0.7 5.4-5.9-0.7-0.7c-4.5-4.2-9.1-8.3-13.5-12.1zM581.1 381l-0.5-0.8-6.7 4.4 0.5 0.8c3.2 4.9 6.5 10 9.7 15.1l0.5 0.8 6.8-4.3-0.5-0.8c-3.3-5.1-6.6-10.2-9.8-15.2zM539.9 321.6l-0.6-0.8-6.4 4.8 0.6 0.8c3.5 4.7 7.1 9.6 10.6 14.5l0.6 0.8 6.5-4.7-0.6-0.8c-3.5-4.8-7.1-9.7-10.7-14.6zM344.7 145.1l-1-0.3-2.4 7.6 1 0.3c5.2 1.6 10.6 3.7 16.2 6.3l0.9 0.4 3.4-7.3-0.9-0.4c-5.8-2.6-11.7-4.9-17.2-6.6zM408.4 180.9l-0.8-0.6-4.9 6.3 0.8 0.6c4.5 3.5 9.2 7.2 13.9 11.2l0.8 0.6 5.1-6.1-0.8-0.6c-4.7-4-9.4-7.8-14.1-11.4zM367.5 154.5l-0.9-0.5-3.6 7.1 0.9 0.5c5 2.5 10.1 5.4 15.4 8.7l0.8 0.5 4.2-6.8-0.8-0.5c-5.5-3.3-10.8-6.3-16-9zM388.6 166.8l-0.8-0.5-4.4 6.7 0.8 0.5c4.7 3.1 9.6 6.5 14.6 10.2l0.8 0.6 4.8-6.4-0.8-0.6c-5.1-3.8-10.1-7.3-15-10.5zM794.1 406.8l1 0.2 2-7.7-1-0.2c-5.7-1.5-11.6-2.9-17.6-4.3l-1-0.2-1.8 7.8 1 0.2c6 1.3 11.8 2.7 17.4 4.2zM754 389.5l-1.6 7.8 1 0.2c5.9 1.2 11.8 2.5 17.5 3.7l1 0.2 1.7-7.8-1-0.2c-5.8-1.3-11.7-2.6-17.7-3.8l-0.9-0.1zM817.2 413.1l1 0.3 2.3-7.7-1-0.3c-5.7-1.7-11.5-3.3-17.4-4.9l-1-0.3-2.1 7.8 1 0.3c5.8 1.6 11.6 3.2 17.2 4.8zM839.9 420.3l0.9 0.3 2.6-7.6-0.9-0.3c-5.6-1.9-11.4-3.8-17.3-5.6l-1-0.3-2.3 7.7 1 0.3c5.8 1.8 11.5 3.6 17 5.5zM954.3 523.7c-1.4 5-3.9 10.1-7.2 15.1l-0.6 0.8 6.7 4.4 0.6-0.8c3.8-5.7 6.5-11.5 8.2-17.3l0.3-1-7.7-2.2-0.3 1zM908.2 573.1c-0.7 0.4-1.4 0.8-2.1 1.3l-0.9 0.5 4.1 6.9 0.9-0.5c0.7-0.4 1.5-0.9 2.2-1.3l0.9-0.5-4.2-6.8-0.9 0.4zM927.5 559.6c-4.3 3.5-9.1 6.9-14.2 10.3l-0.8 0.5 4.4 6.7 0.8-0.5c5.4-3.5 10.4-7.1 14.9-10.8l0.8-0.6-5-6.2-0.9 0.6zM962.6 500.2l-0.2-1-7.8 1.9 0.2 1c0.8 3.3 1.2 6.6 1.2 9.9 0 2.1-0.2 4.2-0.5 6.3l-0.2 1 7.9 1.2 0.2-1c0.4-2.5 0.6-5.1 0.6-7.6 0-3.8-0.5-7.8-1.4-11.7zM862.2 428.5l0.9 0.4 3-7.4-0.9-0.4c-5.4-2.2-11.2-4.3-17-6.4l-0.9-0.3-2.7 7.5 0.9 0.3c5.7 2.1 11.4 4.2 16.7 6.3zM943.8 543.4c-3.3 4.2-7.3 8.4-11.9 12.5l-0.7 0.7 5.3 6 0.7-0.7c5-4.4 9.3-9 12.9-13.5l0.6-0.8-6.3-4.9-0.6 0.7zM929 465.6c4.7 4 8.9 8 12.4 12.1l0.7 0.8 6.1-5.2-0.7-0.8c-3.8-4.4-8.3-8.8-13.3-13l-0.8-0.6-5.1 6.1 0.7 0.6zM884 438l0.9 0.4 3.4-7.2-0.9-0.4c-5.3-2.5-10.9-5-16.6-7.4l-0.9-0.4-3.1 7.4 0.9 0.4c5.7 2.3 11.2 4.7 16.3 7.2zM904.9 449l0.9 0.5 4-6.9-0.9-0.5c-5-2.9-10.4-5.8-16.1-8.7l-0.9-0.4-3.6 7.2 0.9 0.4c5.6 2.7 10.9 5.5 15.7 8.4zM910 452c5.2 3.3 10.1 6.6 14.5 10l0.8 0.6 4.9-6.3-0.8-0.6c-4.6-3.5-9.7-7-15.1-10.4l-0.8-0.5-4.2 6.8 0.7 0.4zM945 482.2c3.6 4.8 6.3 9.8 8.2 14.6l0.3 0.9 7.5-2.8-0.4-0.9c-2.1-5.6-5.2-11.2-9.3-16.6l-0.6-0.8-6.4 4.8 0.7 0.8zM928.4 499.5l0.6 0.8 4-3-0.6-0.8c-26.8-36.3-96.3-67.3-195.7-87.4l-1-0.2-1 4.9 1 0.2c48.2 9.8 89.5 22.2 122.7 36.8 33.5 14.9 57.1 31.2 70 48.7zM681.1 385.7l1 0.1 1-7.9-1-0.1c-5.9-0.8-11.9-1.5-17.9-2.2l-1-0.1-0.9 7.9 1 0.1c5.9 0.7 11.9 1.4 17.8 2.2zM657.3 382.8l1 0.1 0.9-8-1-0.1c-5.9-0.6-12-1.2-18-1.8l-1-0.1-0.7 8 1 0.1c6 0.6 12 1.2 17.8 1.8zM704.8 389l1 0.1 1.2-7.9-1-0.1c-5.9-0.9-11.9-1.7-17.9-2.5l-1-0.1-1.1 7.9 1 0.1c6 0.7 11.9 1.6 17.8 2.5zM633.5 380.5l1 0.1 0.7-8-1-0.1-18-1.5-1-0.1-0.6 8 1 0.1c6 0.5 12 1 17.9 1.5zM540.3 375.5l0.2-8h-1c-6-0.1-12.1-0.2-18-0.2h-1l-0.1 8h1c6 0 12 0.1 17.9 0.2h1zM463.5 376.1c1.4 0 2.7-0.1 4.1-0.1h1l-0.2-8h-1c-1.4 0-2.7 0.1-4.1 0.1-4.7 0.2-9.3 0.3-14 0.5h-1l0.3 8h1c4.6-0.2 9.2-0.4 13.9-0.5zM491.5 375.4h1l-0.1-8h-1c-6 0.1-12.1 0.2-18 0.4h-1l0.2 8h1c5.8-0.2 11.9-0.3 17.9-0.4zM512 375.2h4.4v-8H512c-4.8 0-9.8 0-14.7 0.1h-1l0.1 8h1c4.9 0 9.8-0.1 14.6-0.1zM555.8 375.9l0.2-8h-1c-3.2-0.1-6.3-0.2-9.5-0.3h-1l-0.2 8h1c3.2 0.1 6.3 0.2 9.5 0.3h1zM319.9 380.8l1.2 7.9 1-0.1c5.9-0.9 11.8-1.7 17.8-2.5l1-0.1-1-7.9-1 0.1c-6 0.8-12 1.6-17.9 2.5l-1.1 0.1zM344.8 377.4l-1 0.1 1 7.9 1-0.1c5.9-0.7 11.9-1.4 17.8-2.1l1-0.1-0.9-8-1 0.1c-6 0.7-12 1.4-17.9 2.2zM392.6 372.3l-1 0.1 0.7 8 1-0.1c5.9-0.5 11.9-1 17.9-1.4l1-0.1-0.6-8-1 0.1c-5.9 0.4-12 0.9-18 1.4zM368.7 374.6l-1 0.1 0.8 8 1-0.1c5.9-0.6 11.9-1.2 17.9-1.8l1-0.1-0.7-8-1 0.1c-6 0.6-12.1 1.2-18 1.8zM117.8 574.3c-5.3-3.2-10.3-6.4-14.7-9.6l-0.8-0.6-4.7 6.5 0.8 0.6c4.7 3.4 9.9 6.8 15.4 10.1l0.9 0.5 4.1-6.9-1-0.6zM122.9 577.2l-0.9-0.5-3.9 7 0.9 0.5c5.1 2.8 10.5 5.7 16.2 8.4l0.9 0.4 3.5-7.2-0.9-0.4c-5.6-2.7-10.9-5.4-15.8-8.2zM98.4 561.1c-4.9-3.8-9.2-7.7-12.9-11.6l-0.7-0.7-5.8 5.5 0.7 0.7c4 4.2 8.6 8.4 13.8 12.4l0.8 0.6 4.9-6.3-0.8-0.6zM81.7 545.2c-3.9-4.7-7-9.4-9.2-14.2l-0.4-0.9-7.2 3.4 0.4 0.9c2.5 5.4 6 10.7 10.3 15.9l0.6 0.8 6.1-5.1-0.6-0.8zM70.4 525.9c-1.6-4.6-2.4-9.3-2.4-13.9 0-0.8 0-1.5 0.1-2.3l0.1-1-8-0.4-0.1 1c0 0.9-0.1 1.8-0.1 2.7 0 5.5 0.9 11 2.8 16.5l0.3 0.9 7.6-2.6-0.3-0.9zM274.4 635.4l1.5-7.8-1-0.2c-5.9-1.2-11.8-2.4-17.5-3.6l-1-0.2-1.7 7.8 1 0.2c5.8 1.3 11.7 2.5 17.7 3.7l1 0.1zM211.1 612.1l-1-0.3-2.2 7.7 1 0.3c5.7 1.6 11.5 3.2 17.5 4.8l1 0.3 2-7.7-1-0.2c-5.9-1.7-11.7-3.3-17.3-4.9zM188.4 605.1l-0.9-0.3-2.5 7.6 0.9 0.3c5.6 1.8 11.4 3.7 17.3 5.4l1 0.3 2.3-7.7-1-0.3c-5.9-1.7-11.7-3.5-17.1-5.3zM165.9 597.1l-0.9-0.4-2.9 7.5 0.9 0.4c5.5 2.1 11.2 4.2 17.1 6.2l0.9 0.3 2.6-7.6-0.9-0.3c-5.8-2-11.4-4-16.8-6.1zM68.7 504.3c1-5.2 2.9-10.4 5.9-15.5l0.5-0.9-6.9-4-0.5 0.9c-3.4 5.9-5.7 11.9-6.8 18l-0.2 1 7.9 1.5 0.1-1zM144 587.9l-0.9-0.4-3.3 7.3 0.9 0.4c5.3 2.4 10.9 4.8 16.7 7.2l0.9 0.4 3-7.4-0.9-0.4c-5.6-2.3-11.2-4.7-16.4-7.1zM176.1 423.1c5.5-2 11.1-3.9 16.9-5.7l1-0.3-2.4-7.6-1 0.3c-5.9 1.9-11.6 3.8-17.2 5.8l-0.9 0.3 2.7 7.5 0.9-0.3zM221.7 408.9c5.6-1.5 11.5-3 17.3-4.4l1-0.2-1.9-7.8-1 0.2c-5.9 1.4-11.8 2.9-17.5 4.5l-1 0.3 2.1 7.7 1-0.3zM198.8 415.6c5.6-1.7 11.3-3.4 17.2-5l1-0.3-2.1-7.7-1 0.3c-5.9 1.6-11.8 3.4-17.4 5.1l-1 0.3 2.4 7.6 0.9-0.3zM244.8 403.1c4.2-1 8.6-2 13-2.9l1-0.2-1.7-7.8-1 0.2c-4.4 1-8.8 2-13.1 3l-1 0.2 1.8 7.8 1-0.3zM93.1 467.2c4.1-3.6 8.8-7.2 13.9-10.7l0.8-0.6-4.5-6.6-0.8 0.6c-5.4 3.7-10.3 7.4-14.6 11.2l-0.8 0.7 5.3 6 0.7-0.6zM111.9 453.3c4.7-3 9.9-6 15.3-8.9l0.9-0.5-3.8-7.1-0.9 0.5c-5.6 3-10.9 6.1-15.8 9.2l-0.8 0.5 4.3 6.7 0.8-0.4zM77.6 484.1c3-4.4 6.8-8.7 11.2-13l0.7-0.7-5.5-5.8-0.7 0.7c-4.8 4.6-8.9 9.4-12.3 14.2l-0.6 0.8 6.6 4.6 0.6-0.8zM132.5 441.7c5.1-2.6 10.5-5.1 16.1-7.6l0.9-0.4-3.2-7.3-0.9 0.4c-5.7 2.5-11.3 5.1-16.5 7.8l-0.9 0.5 3.6 7.1 0.9-0.5zM154 431.7c5.3-2.2 10.9-4.4 16.6-6.6l0.9-0.3-2.8-7.5-0.9 0.3c-5.8 2.2-11.5 4.4-16.9 6.7l-0.9 0.4 3.1 7.4 0.9-0.4zM234.2 618.3l-1-0.2-1.9 7.8 1 0.2c5.8 1.4 11.7 2.9 17.6 4.2l1 0.2 1.8-7.8-1-0.2c-5.9-1.4-11.8-2.8-17.5-4.2zM336.5 637.5l-1-0.1-1.1 7.9 1 0.1c5.9 0.8 11.9 1.6 17.9 2.3l1 0.1 0.9-7.9-1-0.1c-5.8-0.7-11.8-1.5-17.7-2.3zM330.5 644.8l1.1-7.9-1-0.1c-1.1-0.2-2.1-0.3-3.2-0.5l-1-0.1-1.1 7.9 1 0.1c1.1 0.2 2.2 0.3 3.2 0.5l1 0.1zM360.2 640.4l-1-0.1-0.9 7.9 1 0.1c6 0.7 12 1.3 18 1.9l1 0.1 0.8-8-1-0.1c-6-0.4-12-1.1-17.9-1.8zM545.1 656.4l-0.2-8h-1c-6 0.1-12 0.2-17.9 0.3h-1l0.1 8h1c6-0.1 12.1-0.2 18-0.3h1zM549.9 648.2h-1l0.2 8h1c6-0.2 12.1-0.4 18-0.6h1l-0.3-8h-1c-5.9 0.3-11.9 0.5-17.9 0.6zM497 656.7l0.1-8h-1c-5.9-0.1-12-0.2-17.9-0.3h-1l-0.2 8h1c6 0.1 12.1 0.2 18 0.3h1zM520 656.7h1v-8h-19.9l-0.1 8h11c2.7 0.1 5.4 0 8 0zM634.5 651.4l1-0.1-0.7-8-1 0.1c-2.3 0.2-4.6 0.4-7 0.6l-1 0.1 0.7 8 1-0.1c2.4-0.1 4.7-0.4 7-0.6zM657.6 641.1c-5.9 0.6-12 1.2-17.8 1.8l-1 0.1 0.7 8 1-0.1 18-1.8 1-0.1-0.9-8-1 0.1zM681.4 638.3c-5.9 0.8-11.9 1.5-17.8 2.2l-1 0.1 0.9 7.9 1-0.1c6-0.7 12-1.4 17.9-2.2l1-0.1-1-7.9-1 0.1zM780.5 620.6c-5.7 1.4-11.6 2.7-17.5 3.9l-1 0.2 1.7 7.8 1-0.2c6-1.3 11.9-2.6 17.6-4l1-0.2-1.8-7.8-1 0.3zM739.6 629.2l-1 0.2 1.5 7.9 1-0.2c6-1.1 12-2.3 17.7-3.5l1-0.2-1.6-7.8-1 0.2c-5.8 1.1-11.7 2.3-17.6 3.4zM803.7 614.7c-5.6 1.5-11.5 3-17.3 4.5l-1 0.2 1.9 7.8 1-0.2c5.9-1.5 11.8-3 17.5-4.5l1-0.3-2.1-7.7-1 0.2zM826.6 608c-5.6 1.7-11.3 3.4-17.1 5.1l-1 0.3 2.2 7.7 1-0.3c5.9-1.7 11.7-3.4 17.4-5.1l1-0.3-2.4-7.6-1.1 0.2zM445 798c-4.3 4.3-8.5 8.6-12.7 12.6l-0.7 0.7 5.6 5.8 0.7-0.7c4.2-4.1 8.6-8.4 12.9-12.7l0.7-0.7-5.7-5.6-0.8 0.6zM461.5 780.7c-4.1 4.4-8.2 8.8-12.3 13l-0.7 0.7 5.8 5.6 0.7-0.7c4.1-4.3 8.3-8.7 12.4-13.2l0.7-0.7-5.9-5.4-0.7 0.7zM477.4 762.9c-4 4.5-8 9-11.9 13.4l-0.7 0.7 5.9 5.4 0.7-0.7c4-4.4 8-8.9 12-13.5l0.7-0.8-6-5.3-0.7 0.8zM434.2 819.9l-5.5-5.8-0.7 0.7c-4.4 4.2-8.8 8.2-13.2 12.1l-0.7 0.7 5.3 6 0.7-0.7c4.4-3.9 8.9-8 13.3-12.3l0.8-0.7zM487.4 763.7c3.9-4.5 7.8-9.1 11.7-13.8l0.6-0.8-6.2-5.1-0.6 0.8c-3.9 4.6-7.7 9.2-11.6 13.7l-0.7 0.8 6.1 5.2 0.7-0.8zM700.2 142l-1-7.9-1 0.1c-5.7 0.7-11.9 2.2-18.3 4.5l-0.9 0.3 2.7 7.5 0.9-0.3c5.9-2.1 11.4-3.5 16.6-4.1l1-0.1zM661.4 156c5.4-3 10.7-5.6 15.7-7.7l0.9-0.4-3.1-7.4-0.9 0.4c-5.3 2.2-10.9 4.9-16.6 8.1l-0.9 0.5 3.9 7 1-0.5zM637.5 171.5l-4.7-6.5-0.8 0.6c-4.7 3.4-9.5 7.2-14.4 11.1l-0.8 0.6 5 6.2 0.8-0.6c4.8-3.9 9.5-7.5 14.1-10.9l0.8-0.5zM641.5 168.6c5.1-3.5 10.1-6.8 14.8-9.6l0.9-0.5-4.1-6.9-0.9 0.5c-4.9 3-10.1 6.3-15.3 10l-0.8 0.6 4.6 6.6 0.8-0.7zM577.3 213.3c-4.2 4.2-8.4 8.5-12.6 13l-0.7 0.7 5.8 5.5 0.7-0.7c4.2-4.4 8.4-8.7 12.5-12.8l0.7-0.7-5.7-5.7-0.7 0.7zM587.2 214.8c4.4-4.3 8.7-8.4 12.9-12.3l0.7-0.7-5.4-5.9-0.7 0.7c-4.3 4-8.7 8.2-13.1 12.5l-0.7 0.7 5.6 5.7 0.7-0.7zM754.3 226.9c0.5-6.4 0.8-12.5 0.8-18.3v-1h-8v1c0 5.6-0.3 11.5-0.7 17.7l-0.1 1 8 0.6v-1zM753.3 184.1l-0.2-1-7.9 1.2 0.2 1c0.8 5.3 1.3 11.2 1.5 17.4v1l8-0.2v-1c-0.2-6.5-0.7-12.7-1.6-18.4zM746.4 160.1l-0.4-0.9-7.2 3.4 0.4 0.9c2.2 4.7 4 10.1 5.3 16.2l0.2 1 7.8-1.7-0.2-1c-1.5-6.7-3.5-12.7-5.9-17.9zM604.5 198.4c4.5-4.1 9.1-8 13.5-11.7l0.8-0.6-5.1-6.1-0.8 0.6c-4.5 3.7-9.1 7.7-13.7 11.9l-0.7 0.7 5.4 5.9 0.6-0.7zM745.8 232.2c-0.3 3.5-0.8 7.2-1.3 10.9l-0.1 1 7.9 1.1 0.1-1c0.5-3.8 0.9-7.6 1.3-11.2l0.1-1-8-0.8v1zM729.7 140.3l-0.8-0.5-4.3 6.7 0.8 0.5c4.3 2.8 8.1 6.7 11.1 11.6l0.5 0.9 6.8-4.2-0.5-0.9c-3.7-6-8.3-10.7-13.6-14.1zM704.5 133.7h-1l0.2 8h1c5.9-0.1 11.2 0.8 15.9 2.8l0.9 0.4 3.1-7.4-0.9-0.4c-5.6-2.4-12.1-3.6-19.2-3.4zM296.1 864l-4 6.9 0.9 0.5c2.7 1.6 5.7 2.9 8.7 4l0.9 0.3 2.6-7.6-0.9-0.3c-2.6-0.9-5-2-7.3-3.3l-0.9-0.5zM333.3 877.3c5.7-0.9 11.8-2.5 18.1-4.7l0.9-0.3-2.6-7.6-0.9 0.3c-5.8 2-11.5 3.5-16.7 4.4l-1 0.2 1.3 7.9 0.9-0.2zM353.3 863.4l2.9 7.4 0.9-0.4c5.4-2.1 11-4.7 16.7-7.7l0.9-0.5-3.7-7.1-0.9 0.5c-5.5 2.9-10.8 5.3-16 7.4l-0.8 0.4zM309.6 869.3l-1-0.2-1.6 7.8 1 0.2c4 0.8 8.2 1.3 12.5 1.3 2.1 0 4.3-0.1 6.6-0.3l1-0.1-0.7-8-1 0.1c-6 0.5-11.7 0.3-16.8-0.8zM374.5 853.3l3.9 7 0.9-0.5c5.1-2.8 10.3-6 15.6-9.5l0.8-0.5-4.4-6.7-0.8 0.5c-5.1 3.4-10.2 6.4-15.2 9.2l-0.8 0.5zM854.5 599.5v-1h-8v1c0 0.6 0 1.2 0.1 1.8-4.7 1.7-9.5 3.3-14.4 4.9l-1 0.3 2.5 7.6 1-0.3c4.9-1.6 9.8-3.2 14.5-4.9 2.3 3.7 5.9 6.6 10.2 7.9l1 0.3 2.2-7.7-1-0.3c-4.1-1.2-7.1-5.2-7.1-9.6zM874.1 596.7l0.3 1 7.7-2.2-0.3-1c-2.2-7.6-9.3-12.9-17.3-12.9-7 0-13.4 4.1-16.4 10.5l-0.4 0.9 7.3 3.3 0.4-0.9c1.6-3.6 5.2-5.8 9.1-5.8 4.4-0.1 8.4 2.9 9.6 7.1zM874.4 600.9c-0.6 4.4-4.1 7.8-8.5 8.5l-1 0.1 1.1 7.9 1-0.1c7.9-1.1 14.1-7.4 15.3-15.3l0.1-1-7.9-1.1-0.1 1z" fill="#8a8a8a" p-id="2238"></path><path d="M397.5 855c-9.1 0-16.5 7.4-16.5 16.5 0 2.4 0.5 4.6 1.4 6.6-39.4 25.3-71.6 32.1-93.1 19.7-13.5-7.8-22.5-22.8-26.9-44.7-4.3-21.6-3.9-49.2 1.1-82.2 10.1-66.2 38.8-150.7 81-237.9l0.4-0.9-4.5-2.2-0.4 0.9c-13 26.9-24.7 53.6-35.1 79.5l0.3-2-1-0.2c-101.3-17.4-178.7-47-212.5-81.3l-0.7-0.7-3.6 3.5 0.7 0.7c17.5 17.7 45.3 34 82.8 48.3 37 14.1 81.5 25.7 132.4 34.4l0.4 0.1c-2.4 6.1-4.7 12.2-7 18.2-5.3-0.9-10.7-1.9-15.9-2.9l-1-0.2-1.5 7.9 1 0.2c4.8 0.9 9.7 1.8 14.6 2.7-17.4 47.8-29.6 92.5-35.4 131.1-5.1 33.5-5.4 61.7-1 83.9 4.6 23.4 14.5 39.6 29.3 48.1 7.7 4.4 16.7 6.7 26.7 6.7 20.1 0 44.2-8.9 71.7-26.5 3 3.5 7.5 5.7 12.4 5.7 9.1 0 16.5-7.4 16.5-16.5s-7.5-16.5-16.6-16.5z m0 28c-6.3 0-11.5-5.2-11.5-11.5s5.2-11.5 11.5-11.5 11.5 5.2 11.5 11.5-5.2 11.5-11.5 11.5zM629.5 512c0-64.8-52.7-117.5-117.5-117.5S394.5 447.2 394.5 512 447.2 629.5 512 629.5 629.5 576.8 629.5 512zM512 624.5c-62 0-112.5-50.5-112.5-112.5S450 399.5 512 399.5 624.5 450 624.5 512 574 624.5 512 624.5z" fill="#8a8a8a" p-id="2239"></path><path d="M512 512m-73 0a73 73 0 1 0 146 0 73 73 0 1 0-146 0Z" fill="#8a8a8a" p-id="2240"></path><path d="M512 512m-60.8 0a60.8 60.8 0 1 0 121.6 0 60.8 60.8 0 1 0-121.6 0Z" fill="#8a8a8a" p-id="2241"></path><path d="M512 512m-48.7 0a48.7 48.7 0 1 0 97.4 0 48.7 48.7 0 1 0-97.4 0Z" fill="#8a8a8a" p-id="2242"></path><path d="M512 512m-36.5 0a36.5 36.5 0 1 0 73 0 36.5 36.5 0 1 0-73 0Z" fill="#8a8a8a" p-id="2243"></path><path d="M487.7 512a24.3 24.3 0 1 0 48.6 0 24.3 24.3 0 1 0-48.6 0Z" fill="#8a8a8a" p-id="2244"></path><path d="M150 621v103c-7.8-1.6-14.9-4.9-21-9.5v-84c6.1-4.6 13.2-7.9 21-9.5z" fill="#8a8a8a" p-id="2245"></path><path d="M171 621v103c-3.4 0.7-6.9 1-10.5 1s-7.1-0.4-10.5-1V621c3.4-0.7 6.9-1 10.5-1s7.1 0.4 10.5 1z" fill="#8a8a8a" p-id="2246"></path><path d="M192 630.5v84c-6.1 4.6-13.2 7.9-21 9.5V621c7.8 1.6 14.9 4.9 21 9.5z" fill="#8a8a8a" p-id="2247"></path><path d="M213 672.5c0 17.2-8.2 32.4-21 42v-84c12.8 9.6 21 24.8 21 42z" fill="#8a8a8a" p-id="2248"></path><path d="M129 630.5v84c-12.8-9.6-21-24.8-21-42s8.2-32.4 21-42z" fill="#8a8a8a" p-id="2249"></path><path d="M815 661.4v102.9c-7.8-1.6-14.9-4.9-21-9.5v-84c6.1-4.5 13.2-7.8 21-9.4z" fill="#8a8a8a" p-id="2250"></path><path d="M836 661.4v102.9c-3.4 0.7-6.9 1-10.5 1s-7.1-0.4-10.5-1V661.4c3.4-0.7 6.9-1.1 10.5-1.1s7.1 0.4 10.5 1.1z" fill="#8a8a8a" p-id="2251"></path><path d="M857 670.8v84c-6.1 4.6-13.2 7.9-21 9.5V661.4c7.8 1.6 14.9 4.9 21 9.4z" fill="#8a8a8a" p-id="2252"></path><path d="M878 712.8c0 17.2-8.2 32.4-21 42v-84c12.8 9.6 21 24.9 21 42z" fill="#8a8a8a" p-id="2253"></path><path d="M794 670.8v84c-12.8-9.6-21-24.8-21-42 0-17.1 8.2-32.4 21-42z" fill="#8a8a8a" p-id="2254"></path><path d="M815 273v103c-7.8-1.6-14.9-4.9-21-9.5v-84c6.1-4.6 13.2-7.9 21-9.5z" fill="#8a8a8a" p-id="2255"></path><path d="M836 273v103c-3.4 0.7-6.9 1-10.5 1s-7.1-0.4-10.5-1V273c3.4-0.7 6.9-1 10.5-1s7.1 0.4 10.5 1z" fill="#8a8a8a" p-id="2256"></path><path d="M857 282.5v84c-6.1 4.6-13.2 7.9-21 9.5V273c7.8 1.6 14.9 4.9 21 9.5z" fill="#8a8a8a" p-id="2257"></path><path d="M878 324.5c0 17.2-8.2 32.4-21 42v-84c12.8 9.6 21 24.8 21 42z" fill="#8a8a8a" p-id="2258"></path><path d="M794 282.5v84c-12.8-9.6-21-24.8-21-42s8.2-32.4 21-42z" fill="#8a8a8a" p-id="2259"></path></svg>